#N canvas 260 21 1627 939 10;
#X msg 622 718 stop;
#X obj 1049 729 writesf~ 2;
#X msg 1316 709 start;
#X msg 1171 659 stop;
#X msg 1130 659 print;
#X text 1160 704 1;
#X text 1299 705 2;
#X obj 1097 854 delread~ delayRight 1500;
#X obj 1099 878 delread~ delayLeft 1000;
#X text 1169 679 CAMBIAR NOMBRE FICHERO CADA NUEVA REC.;
#X obj 906 881 dac~ 1 2;
#X obj 617 323 threshold~ 1 3000 0.1 1000;
#X obj 617 346 bng 15 250 50 0 empty empty empty 17 7 0 10 #fcfcfc #000000 #000000;
#X floatatom 617 413 5 0 0 0 - - - 0;
#X obj 617 299 *~ 5;
#X obj 691 124 adc~;
#N canvas 0 22 796 453 (subpatch) 0;
#X array array1 100 float 3;
#A 0 0 0 0 0 0 0 0 0 0 0 0 0 0 0 0 0 0 0 0 0 0 0 0 0 0 0 0 0 0 0 0 0 0 0 0 0 0 0 0 0 0 0 0 0 0 0 0 0 0 0 0 0 0 0 0 0 0 0 0 0 0 0 0 0 0 0 0 0 0 0 0 0 0 0 0 0 0 0 0 0 0 0 0 0 0 0 0 0 0 0 0 0 0 0 0 0 0 0 0 0;
#X coords 0 1 99 -1 200 140 1;
#X restore 957 140 graph;
#X obj 849 229 tabwrite~ array1;
#X obj 855 185 bng 15 250 50 0 empty empty empty 17 7 0 10 #fcfcfc #000000 #000000;
#X text 915 207 msec.;
#X obj 855 206 metro 160;
#X msg 1178 707 open SELVA.wav;
#X obj 1107 815 delwrite~ delayLeft 3000;
#X obj 1105 790 delwrite~ delayRight 5000;
#X text 682 415 Aves e insectos 305000 msec;
#X msg 237 699 stop;
#X obj 321 318 threshold~ 1 3000 0.1 1000;
#X obj 321 341 bng 15 250 50 0 empty empty empty 17 7 0 10 #fcfcfc #000000 #000000;
#X floatatom 321 408 5 0 0 0 - - - 0;
#X obj 512 840 dac~ 1 2;
#X text 369 407 entorno 305000 msec;
#X obj 321 289 *~ 1.5;
#X obj 791 188 *~ 5.5;
#X obj 335 697 *~ 2.5;
#X obj 670 742 readsf~ 7;
#X obj 315 566 readsf~ 10;
#X obj 321 386 random 10;
#X obj 321 431 sel 0 1 2 3 4 5 6 7 8 9;
#X obj 322 364 metro 305000;
#X obj 618 369 metro 610000;
#X obj 791 153 dsp;
#X obj 791 123 tgl 15 0 empty empty empty 17 7 0 10 #fcfcfc #000000 #000000 0 1;
#X obj 791 89 loadbang;
#X text 1185 561 [D.E.A.R]: Dispositivo Experiencial \, Autónomo y Reactivo \, Miguel Oliveros. II Festival Aloha Invierno \, La Casa Encendida \, Madrid 2015/16;
#X text 209 208 Espacio Restaurante;
#X text 687 263 Espacio Calle;
#X obj 618 390 random 2;
#X obj 643 490 sel 0 1 2;
#X msg 377 516 open 001.wav \, 1;
#X msg 306 467 open 000.wav \, 1;
#X msg 689 547 open 000.wav \, 1;
#X msg 739 610 open 001.wav \, 1;
#X connect 0 0 34 0;
#X connect 2 0 1 0;
#X connect 3 0 1 0;
#X connect 4 0 1 0;
#X connect 7 0 1 1;
#X connect 7 0 10 1;
#X connect 8 0 1 0;
#X connect 8 0 10 0;
#X connect 11 0 12 0;
#X connect 12 0 39 0;
#X connect 13 0 47 0;
#X connect 14 0 11 0;
#X connect 15 0 14 0;
#X connect 15 0 31 0;
#X connect 15 0 32 0;
#X connect 18 0 20 0;
#X connect 20 0 17 0;
#X connect 21 0 1 0;
#X connect 25 0 35 0;
#X connect 26 0 27 0;
#X connect 27 0 38 0;
#X connect 28 0 37 0;
#X connect 31 0 26 0;
#X connect 32 0 17 0;
#X connect 33 0 29 0;
#X connect 33 0 29 1;
#X connect 34 0 29 0;
#X connect 34 1 29 0;
#X connect 34 4 29 1;
#X connect 35 0 33 0;
#X connect 35 4 33 0;
#X connect 35 10 33 0;
#X connect 36 0 28 0;
#X connect 37 0 49 0;
#X connect 38 0 36 0;
#X connect 39 0 46 0;
#X connect 41 0 40 0;
#X connect 41 0 18 0;
#X connect 42 0 41 0;
#X connect 46 0 13 0;
#X connect 47 1 50 0;
#X connect 49 0 35 0;
#X connect 50 0 34 0;
